<?xml version="1.0" encoding="UTF-8" standalone="no"?>
<!-- Created with Inkscape (http://www.inkscape.org/) -->

<svg
   width="128"
   height="128"
   viewBox="0 0 33.866666 33.866667"
   version="1.1"
   id="svg8100"
   inkscape:version="1.1.2 (0a00cf5339, 2022-02-04, custom)"
   sodipodi:docname="no_cover.svg"
   inkscape:export-filename="/home/son_link/proyectos/minimal-player/MinimalPlayer/no-cover.png"
   inkscape:export-xdpi="96.000008"
   inkscape:export-ydpi="96.000008"
   xmlns:inkscape="http://www.inkscape.org/namespaces/inkscape"
   xmlns:sodipodi="http://sodipodi.sourceforge.net/DTD/sodipodi-0.dtd"
   xmlns="http://www.w3.org/2000/svg"
   xmlns:svg="http://www.w3.org/2000/svg">
  <sodipodi:namedview
     id="namedview8102"
     pagecolor="#ffffff"
     bordercolor="#666666"
     borderopacity="1.0"
     inkscape:pageshadow="2"
     inkscape:pageopacity="0.0"
     inkscape:pagecheckerboard="0"
     inkscape:document-units="px"
     showgrid="false"
     units="px"
     inkscape:zoom="2"
     inkscape:cx="102.25"
     inkscape:cy="70.75"
     inkscape:window-width="1334"
     inkscape:window-height="689"
     inkscape:window-x="32"
     inkscape:window-y="32"
     inkscape:window-maximized="1"
     inkscape:current-layer="layer1"
     width="128px" />
  <defs
     id="defs8097" />
  <g
     inkscape:label="Capa 1"
     inkscape:groupmode="layer"
     id="layer1">
    <g
       id="g24821">
      <rect
         style="color:#000000;overflow:visible;fill:#ffffff;stroke:#ffffff;stroke-width:0.280458;stroke-linejoin:bevel;paint-order:stroke markers fill"
         id="rect24737"
         width="27.458193"
         height="19.341173"
         x="3.9087629"
         y="7.1607141" />
      <path
         id="rect846"
         style="color:#000000;overflow:visible;fill:#131313;fill-opacity:1;stroke-width:0.499997;stroke-linecap:round;stroke-linejoin:bevel;paint-order:stroke markers fill"
         d="M 12.5 2.5 C 6.9600001 2.5 2.5 6.9600001 2.5 12.5 L 2.5 115.5 C 2.5 121.04 6.9600001 125.5 12.5 125.5 L 115.5 125.5 C 121.04 125.5 125.5 121.04 125.5 115.5 L 125.5 12.5 C 125.5 6.9600001 121.04 2.5 115.5 2.5 L 12.5 2.5 z M 73.96875 37.111328 C 75.206081 37.111328 76.101584 37.133115 76.65625 37.175781 C 77.232249 37.218448 77.8286 37.315511 78.447266 37.464844 C 79.087264 37.592843 79.632079 37.783063 80.080078 38.039062 C 80.528077 38.295062 80.975829 38.625917 81.423828 39.03125 C 81.893161 39.415249 82.277506 39.916491 82.576172 40.535156 C 82.874838 41.132488 83.140334 41.825903 83.375 42.615234 C 83.844332 44.193898 84.080078 46.040348 84.080078 48.152344 C 84.080078 50.26434 83.994885 51.89683 83.824219 53.048828 C 83.674886 54.179493 83.472796 55.160189 83.216797 55.992188 C 82.960797 56.802853 82.608155 57.506183 82.160156 58.103516 C 81.73349 58.679514 81.273869 59.149053 80.783203 59.511719 C 80.313871 59.853051 79.739306 60.1205 79.056641 60.3125 C 77.477977 60.781832 75.397735 60.930432 72.816406 60.759766 C 71.493742 60.695766 70.532879 60.535296 69.935547 60.279297 C 69.338215 60.023297 68.815187 59.757802 68.367188 59.480469 C 67.940522 59.181803 67.577963 58.829161 67.279297 58.423828 C 66.980631 57.997162 66.693348 57.495921 66.416016 56.919922 C 66.138683 56.32259 65.914807 55.650962 65.744141 54.904297 C 65.594808 54.157632 65.477911 53.303748 65.392578 52.34375 C 65.307245 51.383752 65.263672 50.232669 65.263672 48.888672 C 65.263672 47.523341 65.338948 46.243492 65.488281 45.048828 C 65.658948 43.832831 65.882823 42.808561 66.160156 41.976562 C 66.437489 41.123231 66.809964 40.398113 67.279297 39.800781 C 67.748629 39.203449 68.218168 38.733911 68.6875 38.392578 C 69.178166 38.051245 69.77647 37.783796 70.480469 37.591797 C 71.5898 37.271798 72.752752 37.111328 73.96875 37.111328 z M 43.919922 37.271484 L 48.464844 37.271484 L 57.744141 52.408203 L 57.744141 37.271484 L 62.224609 37.271484 L 62.224609 60.695312 L 57.744141 60.695312 L 48.431641 45.720703 L 48.431641 60.695312 L 43.919922 60.695312 L 43.919922 37.271484 z M 75.183594 41.240234 C 74.287596 41.240234 73.659541 41.262021 73.296875 41.304688 C 72.955542 41.326021 72.581114 41.389427 72.175781 41.496094 C 71.791782 41.60276 71.482713 41.773146 71.248047 42.007812 C 71.034714 42.221145 70.810838 42.520298 70.576172 42.904297 C 70.362839 43.288296 70.20237 43.767751 70.095703 44.34375 C 69.989037 44.898416 69.903844 45.570043 69.839844 46.359375 C 69.775844 47.148707 69.744141 48.141273 69.744141 49.335938 C 69.744141 50.530602 69.785761 51.554871 69.871094 52.408203 C 69.956427 53.240201 70.09511 53.955402 70.287109 54.552734 C 70.500442 55.150067 70.811464 55.597818 71.216797 55.896484 C 71.942129 56.429817 73.093211 56.695313 74.671875 56.695312 C 76.165205 56.695313 77.284585 56.417947 78.03125 55.863281 C 79.076581 55.073949 79.599609 52.835191 79.599609 49.144531 C 79.599609 46.648536 79.460927 44.994259 79.183594 44.183594 C 78.927594 43.372929 78.681932 42.796411 78.447266 42.455078 C 78.233933 42.113745 77.924864 41.84825 77.519531 41.65625 C 76.858199 41.378917 76.079592 41.240234 75.183594 41.240234 z M 24.767578 67.015625 C 27.818239 67.015625 30.538406 67.368267 32.927734 68.072266 L 32.927734 71.591797 L 32.671875 71.560547 C 32.522542 71.539214 32.308583 71.517427 32.03125 71.496094 C 31.775251 71.47476 31.466182 71.452974 31.103516 71.431641 C 30.74085 71.388974 30.336671 71.357271 29.888672 71.335938 C 29.462006 71.293271 29.034088 71.261568 28.607422 71.240234 C 27.604757 71.176235 26.709254 71.144531 25.919922 71.144531 C 25.13059 71.144531 24.512452 71.198021 24.064453 71.304688 C 23.637787 71.390021 23.221739 71.582193 22.816406 71.880859 C 22.411074 72.158192 22.111921 72.584157 21.919922 73.160156 C 21.493256 74.397487 21.279297 76.37075 21.279297 79.080078 C 21.279297 81.789406 21.590319 83.752752 22.208984 84.96875 C 22.848983 86.163414 24.053556 86.759766 25.824219 86.759766 C 27.829548 86.759766 29.856301 86.696359 31.904297 86.568359 L 32.927734 86.503906 L 32.927734 89.992188 C 31.007738 90.58952 28.533234 90.888672 25.503906 90.888672 L 24.767578 90.888672 C 21.908917 90.867339 19.862331 89.843069 18.625 87.816406 C 17.409002 85.789744 16.800781 82.782294 16.800781 78.792969 C 16.800781 74.78231 17.333726 71.901674 18.400391 70.152344 C 19.253722 68.744347 20.436508 67.815187 21.951172 67.367188 C 22.78317 67.132521 23.722247 67.015625 24.767578 67.015625 z M 43.392578 67.111328 C 44.629909 67.111328 45.525413 67.133115 46.080078 67.175781 C 46.656077 67.218448 47.252428 67.315511 47.871094 67.464844 C 48.511092 67.592843 49.055907 67.783063 49.503906 68.039062 C 49.951905 68.295062 50.399657 68.625917 50.847656 69.03125 C 51.316989 69.415249 51.701334 69.916491 52 70.535156 C 52.298666 71.132488 52.566115 71.825903 52.800781 72.615234 C 53.270114 74.193898 53.503906 76.040348 53.503906 78.152344 C 53.503906 80.26434 53.418713 81.89683 53.248047 83.048828 C 53.098714 84.179493 52.896624 85.160189 52.640625 85.992188 C 52.384626 86.802853 52.031983 87.506183 51.583984 88.103516 C 51.157319 88.679514 50.69965 89.149053 50.208984 89.511719 C 49.739652 89.853051 49.163134 90.1205 48.480469 90.3125 C 46.901805 90.781832 44.821563 90.930432 42.240234 90.759766 C 40.91757 90.695766 39.956707 90.535296 39.359375 90.279297 C 38.762043 90.023297 38.240968 89.757802 37.792969 89.480469 C 37.366303 89.181803 37.001791 88.829161 36.703125 88.423828 C 36.404459 87.997162 36.117177 87.495921 35.839844 86.919922 C 35.562511 86.32259 35.338635 85.650962 35.167969 84.904297 C 35.018636 84.157632 34.901739 83.303748 34.816406 82.34375 C 34.731073 81.383752 34.6875 80.232669 34.6875 78.888672 C 34.6875 77.523341 34.762776 76.243492 34.912109 75.048828 C 35.082776 73.832831 35.306652 72.808561 35.583984 71.976562 C 35.861317 71.123231 36.233793 70.398113 36.703125 69.800781 C 37.172457 69.203449 37.641996 68.733911 38.111328 68.392578 C 38.601994 68.051245 39.200298 67.783796 39.904297 67.591797 C 41.013628 67.271798 42.176581 67.111328 43.392578 67.111328 z M 54.527344 67.271484 L 59.296875 67.271484 L 64.511719 84.808594 L 70.015625 67.271484 L 74.783203 67.271484 L 67.072266 90.695312 L 61.888672 90.695312 L 54.527344 67.271484 z M 80.480469 67.271484 C 80.800468 67.271484 82.345813 67.315057 85.119141 67.400391 C 87.892469 67.46439 89.962794 67.591204 91.328125 67.783203 L 91.328125 71.496094 L 82.080078 71.496094 C 81.290746 71.496094 80.799421 71.688266 80.607422 72.072266 C 80.479422 72.370932 80.416016 72.77511 80.416016 73.287109 L 80.416016 76.935547 L 89.888672 77.255859 L 89.888672 80.96875 L 80.416016 81.255859 L 80.416016 84.904297 C 80.416016 85.714962 80.639892 86.206287 81.087891 86.376953 C 81.40789 86.504953 81.845725 86.568359 82.400391 86.568359 L 91.328125 86.568359 L 91.328125 90.248047 C 90.26146 90.39738 87.626487 90.545979 83.423828 90.695312 L 81.34375 90.791016 L 80.736328 90.791016 C 80.522995 90.791016 80.23376 90.771182 79.871094 90.728516 C 79.508428 90.707182 79.072546 90.600203 78.560547 90.408203 C 78.048548 90.216204 77.600796 89.960624 77.216797 89.640625 C 76.363465 88.872627 75.935547 87.687887 75.935547 86.087891 L 75.935547 72.136719 C 75.935547 70.195389 76.512065 68.862051 77.664062 68.136719 C 78.197395 67.816719 78.720423 67.592843 79.232422 67.464844 C 79.765754 67.336844 80.181803 67.271484 80.480469 67.271484 z M 93.855469 67.271484 L 104.0957 67.271484 C 106.1437 67.271484 107.66921 67.794512 108.67188 68.839844 C 109.88787 70.077175 110.49609 71.987031 110.49609 74.568359 C 110.49609 77.576353 109.86609 79.571403 108.60742 80.552734 C 108.20209 80.872734 107.89302 81.074823 107.67969 81.160156 C 107.46635 81.245489 107.15729 81.352469 106.75195 81.480469 L 111.19922 90.695312 L 106.14453 90.695312 L 102.27148 81.832031 L 98.335938 81.384766 L 98.335938 90.695312 L 93.855469 90.695312 L 93.855469 67.271484 z M 44.607422 71.240234 C 43.711424 71.240234 43.083369 71.262021 42.720703 71.304688 C 42.37937 71.326021 42.004942 71.389427 41.599609 71.496094 C 41.21561 71.60276 40.906541 71.773146 40.671875 72.007812 C 40.458542 72.221145 40.234666 72.520298 40 72.904297 C 39.786667 73.288296 39.626198 73.767751 39.519531 74.34375 C 39.412865 74.898416 39.327672 75.570043 39.263672 76.359375 C 39.199672 77.148707 39.167969 78.141273 39.167969 79.335938 C 39.167969 80.530602 39.211542 81.554871 39.296875 82.408203 C 39.382208 83.240201 39.520891 83.955402 39.712891 84.552734 C 39.926224 85.150067 40.235292 85.597818 40.640625 85.896484 C 41.365957 86.429817 42.51704 86.695313 44.095703 86.695312 C 45.589034 86.695312 46.708413 86.417947 47.455078 85.863281 C 48.500409 85.073949 49.023437 82.835191 49.023438 79.144531 C 49.023438 76.648536 48.884755 74.994259 48.607422 74.183594 C 48.351422 73.372929 48.10576 72.796411 47.871094 72.455078 C 47.657761 72.113745 47.348692 71.84825 46.943359 71.65625 C 46.282027 71.378917 45.50342 71.240234 44.607422 71.240234 z M 98.367188 71.240234 L 98.367188 77.863281 L 103.67969 77.863281 C 104.51169 77.863281 105.09812 77.651275 105.43945 77.224609 C 105.80212 76.797944 105.98438 75.934143 105.98438 74.632812 C 105.98438 73.331482 105.7922 72.445895 105.4082 71.976562 C 105.0242 71.485897 104.44769 71.240234 103.67969 71.240234 L 98.367188 71.240234 z "
         transform="scale(0.26458333)" />
    </g>
  </g>
</svg>
